# xmcd
#
# Track frame offsets:
#	150
#	10807
#	29827
#	45487
#	58725
#	71720
#	88417
#	100602
#	115700
#	132540
#	144632
#	159072
#	174175
#	186235
#	199522
#	208252
#
# Disc length: 2969
#
# Revision: 1
# Processed by: cddbd v1.5.1PL0 Copyright (c) Steve Scherf et al.
# Submitted via: VisiTrax 2.9.2.167 - For more info visit www.synapsa.com
# Normalized: r0:DSETVAR1
#
DISCID=e20b9710
DTITLE=Various Artist - Real Country 2
DYEAR=1900
DGENRE=
TTITLE0=Shenandoah - Can't buy me love
TTITLE1=Gentry, Bobbie - Ode to Billy Joe
TTITLE2=Smokie - She rides wild horses
TTITLE3=Campbell, Glen - Southrn nights
TTITLE4=Bogguss, Suzy - I want to be a cowboys sweetheart
TTITLE5=Backseat - We've got tonight
TTITLE6=Tucker, Tanya - Strong enough to bend
TTITLE7=Bellamy Brothers, The - Redneck girl
TTITLE8=Rogers, Kenny - You decorated my life
TTITLE9=Dr. hook - I don't feel much like smilin'
TTITLE10=Gayle, Crystal - Cry me a river
TTITLE11=Dean, Billy - A fall in Tennessee
TTITLE12=Campbell, Glen - Something 'bout yo baby I like (With Rita Coolidge)
TTITLE13=Highway 101 - Home on the range
TTITLE14=Jackson, Wanda - Jambalaya (on the bayou)
TTITLE15=Denver, John - Take me home country roads
EXTD=
EXTT0=
EXTT1=
EXTT2=
EXTT3=
EXTT4=
EXTT5=
EXTT6=
EXTT7=
EXTT8=
EXTT9=
EXTT10=
EXTT11=
EXTT12=
EXTT13=
EXTT14=
EXTT15=
PLAYORDER=
